<mxfile host="Electron" agent="Mozilla/5.0 (Windows NT 10.0; Win64; x64) AppleWebKit/537.36 (KHTML, like Gecko) draw.io/26.2.15 Chrome/134.0.6998.205 Electron/35.2.1 Safari/537.36" version="26.2.15">
  <diagram name="Pagina-1" id="1niPncTcbanJa_PL0URF">
    <mxGraphModel dx="-263" dy="330" grid="0" gridSize="10" guides="1" tooltips="1" connect="1" arrows="1" fold="1" page="1" pageScale="1" pageWidth="827" pageHeight="1169" math="0" shadow="0">
      <root>
        <mxCell id="0" />
        <mxCell id="1" parent="0" />
        <mxCell id="spKW847g__nj8NnTJKyM-132" value="0..*" style="text;html=1;align=center;verticalAlign=middle;resizable=0;points=[];autosize=1;strokeColor=none;fillColor=none;" parent="1" vertex="1">
          <mxGeometry x="1201" y="463" width="36" height="26" as="geometry" />
        </mxCell>
        <mxCell id="spKW847g__nj8NnTJKyM-133" value="0..*" style="text;html=1;align=center;verticalAlign=middle;resizable=0;points=[];autosize=1;strokeColor=none;fillColor=none;" parent="1" vertex="1">
          <mxGeometry x="1422" y="464" width="36" height="26" as="geometry" />
        </mxCell>
        <mxCell id="spKW847g__nj8NnTJKyM-137" value="Riguarda" style="text;html=1;align=center;verticalAlign=middle;resizable=0;points=[];autosize=1;strokeColor=none;fillColor=none;" parent="1" vertex="1">
          <mxGeometry x="1021" y="953" width="67" height="26" as="geometry" />
        </mxCell>
        <mxCell id="spKW847g__nj8NnTJKyM-141" value="0..*" style="text;html=1;align=center;verticalAlign=middle;whiteSpace=wrap;rounded=0;" parent="1" vertex="1">
          <mxGeometry x="1333" y="927" width="32" height="21" as="geometry" />
        </mxCell>
        <mxCell id="spKW847g__nj8NnTJKyM-142" value="1" style="edgeLabel;resizable=0;html=1;align=right;verticalAlign=bottom;fontSize=12;" parent="1" connectable="0" vertex="1">
          <mxGeometry x="1412" y="600.0048275862068" as="geometry">
            <mxPoint x="29" y="-49" as="offset" />
          </mxGeometry>
        </mxCell>
        <mxCell id="spKW847g__nj8NnTJKyM-144" value="0..*" style="text;html=1;align=center;verticalAlign=middle;resizable=0;points=[];autosize=1;strokeColor=none;fillColor=none;" parent="1" vertex="1">
          <mxGeometry x="1422" y="406" width="36" height="26" as="geometry" />
        </mxCell>
        <mxCell id="spKW847g__nj8NnTJKyM-145" value="Si_Iscrive" style="text;html=1;align=center;verticalAlign=middle;whiteSpace=wrap;rounded=0;" parent="1" vertex="1">
          <mxGeometry x="1293" y="460" width="60" height="30" as="geometry" />
        </mxCell>
        <mxCell id="spKW847g__nj8NnTJKyM-168" value="0..*" style="text;html=1;align=center;verticalAlign=middle;resizable=0;points=[];autosize=1;strokeColor=none;fillColor=none;" parent="1" vertex="1">
          <mxGeometry x="1088" y="574" width="36" height="26" as="geometry" />
        </mxCell>
        <mxCell id="spKW847g__nj8NnTJKyM-172" value="&amp;nbsp;Tratta" style="text;strokeColor=none;fillColor=none;align=left;verticalAlign=top;spacingLeft=4;spacingRight=4;overflow=hidden;rotatable=0;points=[[0,0.5],[1,0.5]];portConstraint=eastwest;whiteSpace=wrap;html=1;" parent="1" vertex="1">
          <mxGeometry x="1553" y="282" width="45" height="26" as="geometry" />
        </mxCell>
        <mxCell id="spKW847g__nj8NnTJKyM-173" value="0..*" style="edgeLabel;resizable=0;html=1;align=left;verticalAlign=bottom;fontSize=12;" parent="1" connectable="0" vertex="1">
          <mxGeometry x="1100" y="907.998" as="geometry">
            <mxPoint x="25" y="3" as="offset" />
          </mxGeometry>
        </mxCell>
        <mxCell id="spKW847g__nj8NnTJKyM-174" value="&lt;div&gt;&lt;span style=&quot;font-weight: 700;&quot;&gt;&lt;br&gt;&lt;/span&gt;&lt;/div&gt;&lt;span style=&quot;font-weight: 700;&quot;&gt;&lt;div&gt;&amp;lt;&amp;lt;enumeration&amp;gt;&amp;gt;&lt;span style=&quot;font-weight: 700;&quot;&gt;&lt;/span&gt;&lt;/div&gt;LivelloDifficoltÃ &lt;/span&gt;&lt;div&gt;&lt;br&gt;&lt;/div&gt;" style="swimlane;fontStyle=0;childLayout=stackLayout;horizontal=1;startSize=31;fillColor=#f5f5f5;horizontalStack=0;resizeParent=1;resizeParentMax=0;resizeLast=0;collapsible=1;marginBottom=0;whiteSpace=wrap;html=1;strokeColor=#666666;fontColor=#333333;" parent="1" vertex="1">
          <mxGeometry x="872" y="19" width="151" height="161" as="geometry" />
        </mxCell>
        <mxCell id="spKW847g__nj8NnTJKyM-175" value="Principiante" style="text;strokeColor=none;fillColor=none;align=left;verticalAlign=top;spacingLeft=4;spacingRight=4;overflow=hidden;rotatable=0;points=[[0,0.5],[1,0.5]];portConstraint=eastwest;whiteSpace=wrap;html=1;" parent="spKW847g__nj8NnTJKyM-174" vertex="1">
          <mxGeometry y="31" width="151" height="26" as="geometry" />
        </mxCell>
        <mxCell id="spKW847g__nj8NnTJKyM-176" value="Facile" style="text;strokeColor=none;fillColor=none;align=left;verticalAlign=top;spacingLeft=4;spacingRight=4;overflow=hidden;rotatable=0;points=[[0,0.5],[1,0.5]];portConstraint=eastwest;whiteSpace=wrap;html=1;" parent="spKW847g__nj8NnTJKyM-174" vertex="1">
          <mxGeometry y="57" width="151" height="26" as="geometry" />
        </mxCell>
        <mxCell id="spKW847g__nj8NnTJKyM-177" value="Medio" style="text;strokeColor=none;fillColor=none;align=left;verticalAlign=top;spacingLeft=4;spacingRight=4;overflow=hidden;rotatable=0;points=[[0,0.5],[1,0.5]];portConstraint=eastwest;whiteSpace=wrap;html=1;" parent="spKW847g__nj8NnTJKyM-174" vertex="1">
          <mxGeometry y="83" width="151" height="26" as="geometry" />
        </mxCell>
        <mxCell id="spKW847g__nj8NnTJKyM-178" value="Difficile" style="text;strokeColor=none;fillColor=none;align=left;verticalAlign=top;spacingLeft=4;spacingRight=4;overflow=hidden;rotatable=0;points=[[0,0.5],[1,0.5]];portConstraint=eastwest;whiteSpace=wrap;html=1;" parent="spKW847g__nj8NnTJKyM-174" vertex="1">
          <mxGeometry y="109" width="151" height="26" as="geometry" />
        </mxCell>
        <mxCell id="spKW847g__nj8NnTJKyM-179" value="Esperto" style="text;strokeColor=none;fillColor=none;align=left;verticalAlign=top;spacingLeft=4;spacingRight=4;overflow=hidden;rotatable=0;points=[[0,0.5],[1,0.5]];portConstraint=eastwest;whiteSpace=wrap;html=1;" parent="spKW847g__nj8NnTJKyM-174" vertex="1">
          <mxGeometry y="135" width="151" height="26" as="geometry" />
        </mxCell>
        <mxCell id="spKW847g__nj8NnTJKyM-180" value="&lt;div&gt;&lt;span style=&quot;background-color: transparent; color: light-dark(rgb(51, 51, 51), rgb(193, 193, 193)); font-weight: 700;&quot;&gt;&lt;br&gt;&lt;/span&gt;&lt;/div&gt;&lt;div&gt;&lt;span style=&quot;background-color: transparent; color: light-dark(rgb(51, 51, 51), rgb(193, 193, 193)); font-weight: 700;&quot;&gt;&amp;lt;&amp;lt;enumeration&amp;gt;&amp;gt;&lt;/span&gt;&lt;/div&gt;&lt;div&gt;&lt;span style=&quot;font-weight: 700;&quot;&gt;NaturaIngrediente&lt;/span&gt;&lt;/div&gt;&lt;div&gt;&lt;br&gt;&lt;/div&gt;" style="swimlane;fontStyle=0;childLayout=stackLayout;horizontal=1;startSize=31;fillColor=#f5f5f5;horizontalStack=0;resizeParent=1;resizeParentMax=0;resizeLast=0;collapsible=1;marginBottom=0;whiteSpace=wrap;html=1;strokeColor=#666666;fontColor=#333333;" parent="1" vertex="1">
          <mxGeometry x="1067" y="17" width="151" height="213" as="geometry" />
        </mxCell>
        <mxCell id="spKW847g__nj8NnTJKyM-181" value="Vegetale" style="text;strokeColor=none;fillColor=none;align=left;verticalAlign=top;spacingLeft=4;spacingRight=4;overflow=hidden;rotatable=0;points=[[0,0.5],[1,0.5]];portConstraint=eastwest;whiteSpace=wrap;html=1;" parent="spKW847g__nj8NnTJKyM-180" vertex="1">
          <mxGeometry y="31" width="151" height="26" as="geometry" />
        </mxCell>
        <mxCell id="spKW847g__nj8NnTJKyM-182" value="Animale" style="text;strokeColor=none;fillColor=none;align=left;verticalAlign=top;spacingLeft=4;spacingRight=4;overflow=hidden;rotatable=0;points=[[0,0.5],[1,0.5]];portConstraint=eastwest;whiteSpace=wrap;html=1;" parent="spKW847g__nj8NnTJKyM-180" vertex="1">
          <mxGeometry y="57" width="151" height="26" as="geometry" />
        </mxCell>
        <mxCell id="spKW847g__nj8NnTJKyM-183" value="Minerale" style="text;strokeColor=none;fillColor=none;align=left;verticalAlign=top;spacingLeft=4;spacingRight=4;overflow=hidden;rotatable=0;points=[[0,0.5],[1,0.5]];portConstraint=eastwest;whiteSpace=wrap;html=1;" parent="spKW847g__nj8NnTJKyM-180" vertex="1">
          <mxGeometry y="83" width="151" height="26" as="geometry" />
        </mxCell>
        <mxCell id="spKW847g__nj8NnTJKyM-184" value="Fungino" style="text;strokeColor=none;fillColor=none;align=left;verticalAlign=top;spacingLeft=4;spacingRight=4;overflow=hidden;rotatable=0;points=[[0,0.5],[1,0.5]];portConstraint=eastwest;whiteSpace=wrap;html=1;" parent="spKW847g__nj8NnTJKyM-180" vertex="1">
          <mxGeometry y="109" width="151" height="26" as="geometry" />
        </mxCell>
        <mxCell id="spKW847g__nj8NnTJKyM-185" value="Sintetico" style="text;strokeColor=none;fillColor=none;align=left;verticalAlign=top;spacingLeft=4;spacingRight=4;overflow=hidden;rotatable=0;points=[[0,0.5],[1,0.5]];portConstraint=eastwest;whiteSpace=wrap;html=1;" parent="spKW847g__nj8NnTJKyM-180" vertex="1">
          <mxGeometry y="135" width="151" height="26" as="geometry" />
        </mxCell>
        <mxCell id="spKW847g__nj8NnTJKyM-186" value="Microbico" style="text;strokeColor=none;fillColor=none;align=left;verticalAlign=top;spacingLeft=4;spacingRight=4;overflow=hidden;rotatable=0;points=[[0,0.5],[1,0.5]];portConstraint=eastwest;whiteSpace=wrap;html=1;" parent="spKW847g__nj8NnTJKyM-180" vertex="1">
          <mxGeometry y="161" width="151" height="26" as="geometry" />
        </mxCell>
        <mxCell id="spKW847g__nj8NnTJKyM-187" value="Altro" style="text;strokeColor=none;fillColor=none;align=left;verticalAlign=top;spacingLeft=4;spacingRight=4;overflow=hidden;rotatable=0;points=[[0,0.5],[1,0.5]];portConstraint=eastwest;whiteSpace=wrap;html=1;" parent="spKW847g__nj8NnTJKyM-180" vertex="1">
          <mxGeometry y="187" width="151" height="26" as="geometry" />
        </mxCell>
        <mxCell id="spKW847g__nj8NnTJKyM-190" value="0..*" style="text;html=1;align=center;verticalAlign=middle;whiteSpace=wrap;rounded=0;" parent="1" vertex="1">
          <mxGeometry x="872" y="872" width="60" height="30" as="geometry" />
        </mxCell>
        <mxCell id="spKW847g__nj8NnTJKyM-191" value="0..*" style="text;html=1;align=center;verticalAlign=middle;whiteSpace=wrap;rounded=0;" parent="1" vertex="1">
          <mxGeometry x="1104" y="1130" width="60" height="30" as="geometry" />
        </mxCell>
        <mxCell id="spKW847g__nj8NnTJKyM-207" value="1..*" style="text;html=1;align=center;verticalAlign=middle;whiteSpace=wrap;rounded=0;" parent="1" vertex="1">
          <mxGeometry x="1541.5" y="232" width="60" height="30" as="geometry" />
        </mxCell>
        <mxCell id="spKW847g__nj8NnTJKyM-208" value="0..*" style="text;html=1;align=center;verticalAlign=middle;whiteSpace=wrap;rounded=0;" parent="1" vertex="1">
          <mxGeometry x="1543" y="337" width="60" height="30" as="geometry" />
        </mxCell>
        <mxCell id="spKW847g__nj8NnTJKyM-212" value="1" style="edgeLabel;resizable=0;html=1;align=right;verticalAlign=bottom;fontSize=12;" parent="1" connectable="0" vertex="1">
          <mxGeometry x="1536" y="703.0048275862068" as="geometry">
            <mxPoint x="29" y="-49" as="offset" />
          </mxGeometry>
        </mxCell>
        <mxCell id="spKW847g__nj8NnTJKyM-213" value="0..*" style="text;html=1;align=center;verticalAlign=middle;whiteSpace=wrap;rounded=0;" parent="1" vertex="1">
          <mxGeometry x="1551" y="678" width="32" height="21" as="geometry" />
        </mxCell>
        <mxCell id="KIn9AzGLWY45rzJbxynw-2" value="&lt;div&gt;&lt;span style=&quot;font-weight: 700;&quot;&gt;&amp;lt;&amp;lt;enumeration&amp;gt;&amp;gt;&lt;/span&gt;&lt;b&gt;&lt;/b&gt;&lt;/div&gt;&lt;div&gt;&lt;b&gt;UnitaDiMisura&lt;/b&gt;&lt;/div&gt;" style="swimlane;fontStyle=0;childLayout=stackLayout;horizontal=1;startSize=31;fillColor=#f5f5f5;horizontalStack=0;resizeParent=1;resizeParentMax=0;resizeLast=0;collapsible=1;marginBottom=0;whiteSpace=wrap;html=1;strokeColor=#666666;fontColor=#333333;" parent="1" vertex="1">
          <mxGeometry x="1433" y="871" width="142" height="291" as="geometry" />
        </mxCell>
        <mxCell id="O1Rt-andwBPEwg0j2SGx-1" value="UnitÃ " style="text;strokeColor=none;fillColor=none;align=left;verticalAlign=top;spacingLeft=4;spacingRight=4;overflow=hidden;rotatable=0;points=[[0,0.5],[1,0.5]];portConstraint=eastwest;whiteSpace=wrap;html=1;" vertex="1" parent="KIn9AzGLWY45rzJbxynw-2">
          <mxGeometry y="31" width="142" height="26" as="geometry" />
        </mxCell>
        <mxCell id="KIn9AzGLWY45rzJbxynw-3" value="Grammi" style="text;strokeColor=none;fillColor=none;align=left;verticalAlign=top;spacingLeft=4;spacingRight=4;overflow=hidden;rotatable=0;points=[[0,0.5],[1,0.5]];portConstraint=eastwest;whiteSpace=wrap;html=1;" parent="KIn9AzGLWY45rzJbxynw-2" vertex="1">
          <mxGeometry y="57" width="142" height="26" as="geometry" />
        </mxCell>
        <mxCell id="KIn9AzGLWY45rzJbxynw-4" value="Kilogrammi" style="text;strokeColor=none;fillColor=none;align=left;verticalAlign=top;spacingLeft=4;spacingRight=4;overflow=hidden;rotatable=0;points=[[0,0.5],[1,0.5]];portConstraint=eastwest;whiteSpace=wrap;html=1;" parent="KIn9AzGLWY45rzJbxynw-2" vertex="1">
          <mxGeometry y="83" width="142" height="26" as="geometry" />
        </mxCell>
        <mxCell id="KIn9AzGLWY45rzJbxynw-5" value="Litri" style="text;strokeColor=none;fillColor=none;align=left;verticalAlign=top;spacingLeft=4;spacingRight=4;overflow=hidden;rotatable=0;points=[[0,0.5],[1,0.5]];portConstraint=eastwest;whiteSpace=wrap;html=1;" parent="KIn9AzGLWY45rzJbxynw-2" vertex="1">
          <mxGeometry y="109" width="142" height="26" as="geometry" />
        </mxCell>
        <mxCell id="KIn9AzGLWY45rzJbxynw-6" value="Millilitri" style="text;strokeColor=none;fillColor=none;align=left;verticalAlign=top;spacingLeft=4;spacingRight=4;overflow=hidden;rotatable=0;points=[[0,0.5],[1,0.5]];portConstraint=eastwest;whiteSpace=wrap;html=1;" parent="KIn9AzGLWY45rzJbxynw-2" vertex="1">
          <mxGeometry y="135" width="142" height="26" as="geometry" />
        </mxCell>
        <mxCell id="KIn9AzGLWY45rzJbxynw-12" value="Bicchiere" style="text;strokeColor=none;fillColor=none;align=left;verticalAlign=top;spacingLeft=4;spacingRight=4;overflow=hidden;rotatable=0;points=[[0,0.5],[1,0.5]];portConstraint=eastwest;whiteSpace=wrap;html=1;" parent="KIn9AzGLWY45rzJbxynw-2" vertex="1">
          <mxGeometry y="161" width="142" height="26" as="geometry" />
        </mxCell>
        <mxCell id="KIn9AzGLWY45rzJbxynw-11" value="Tazza" style="text;strokeColor=none;fillColor=none;align=left;verticalAlign=top;spacingLeft=4;spacingRight=4;overflow=hidden;rotatable=0;points=[[0,0.5],[1,0.5]];portConstraint=eastwest;whiteSpace=wrap;html=1;" parent="KIn9AzGLWY45rzJbxynw-2" vertex="1">
          <mxGeometry y="187" width="142" height="26" as="geometry" />
        </mxCell>
        <mxCell id="KIn9AzGLWY45rzJbxynw-10" value="Tazzina" style="text;strokeColor=none;fillColor=none;align=left;verticalAlign=top;spacingLeft=4;spacingRight=4;overflow=hidden;rotatable=0;points=[[0,0.5],[1,0.5]];portConstraint=eastwest;whiteSpace=wrap;html=1;" parent="KIn9AzGLWY45rzJbxynw-2" vertex="1">
          <mxGeometry y="213" width="142" height="26" as="geometry" />
        </mxCell>
        <mxCell id="KIn9AzGLWY45rzJbxynw-7" value="Cucchiaio" style="text;strokeColor=none;fillColor=none;align=left;verticalAlign=top;spacingLeft=4;spacingRight=4;overflow=hidden;rotatable=0;points=[[0,0.5],[1,0.5]];portConstraint=eastwest;whiteSpace=wrap;html=1;" parent="KIn9AzGLWY45rzJbxynw-2" vertex="1">
          <mxGeometry y="239" width="142" height="26" as="geometry" />
        </mxCell>
        <mxCell id="KIn9AzGLWY45rzJbxynw-8" value="Cucchiaino" style="text;strokeColor=none;fillColor=none;align=left;verticalAlign=top;spacingLeft=4;spacingRight=4;overflow=hidden;rotatable=0;points=[[0,0.5],[1,0.5]];portConstraint=eastwest;whiteSpace=wrap;html=1;" parent="KIn9AzGLWY45rzJbxynw-2" vertex="1">
          <mxGeometry y="265" width="142" height="26" as="geometry" />
        </mxCell>
        <mxCell id="_4BLBaTchMxzVuJuGMlZ-44" value="Corso" style="swimlane;fontStyle=1;align=center;verticalAlign=top;childLayout=stackLayout;horizontal=1;startSize=26;horizontalStack=0;resizeParent=1;resizeParentMax=0;resizeLast=0;collapsible=1;marginBottom=0;whiteSpace=wrap;html=1;fillColor=#d5e8d4;strokeColor=#82b366;" parent="1" vertex="1">
          <mxGeometry x="1455" y="360" width="182" height="264" as="geometry" />
        </mxCell>
        <mxCell id="_4BLBaTchMxzVuJuGMlZ-45" value="+ IdCorso: Integer [1]" style="text;strokeColor=none;fillColor=none;align=left;verticalAlign=top;spacingLeft=4;spacingRight=4;overflow=hidden;rotatable=0;points=[[0,0.5],[1,0.5]];portConstraint=eastwest;whiteSpace=wrap;html=1;" parent="_4BLBaTchMxzVuJuGMlZ-44" vertex="1">
          <mxGeometry y="26" width="182" height="26" as="geometry" />
        </mxCell>
        <mxCell id="_4BLBaTchMxzVuJuGMlZ-46" value="+ Nome: String [1]" style="text;strokeColor=none;fillColor=none;align=left;verticalAlign=top;spacingLeft=4;spacingRight=4;overflow=hidden;rotatable=0;points=[[0,0.5],[1,0.5]];portConstraint=eastwest;whiteSpace=wrap;html=1;" parent="_4BLBaTchMxzVuJuGMlZ-44" vertex="1">
          <mxGeometry y="52" width="182" height="26" as="geometry" />
        </mxCell>
        <mxCell id="_4BLBaTchMxzVuJuGMlZ-47" value="+ DataInizio: Data [1]" style="text;strokeColor=none;fillColor=none;align=left;verticalAlign=top;spacingLeft=4;spacingRight=4;overflow=hidden;rotatable=0;points=[[0,0.5],[1,0.5]];portConstraint=eastwest;whiteSpace=wrap;html=1;" parent="_4BLBaTchMxzVuJuGMlZ-44" vertex="1">
          <mxGeometry y="78" width="182" height="26" as="geometry" />
        </mxCell>
        <mxCell id="_4BLBaTchMxzVuJuGMlZ-48" value="+ NumeroSessioni: Integer [1]" style="text;strokeColor=none;fillColor=none;align=left;verticalAlign=top;spacingLeft=4;spacingRight=4;overflow=hidden;rotatable=0;points=[[0,0.5],[1,0.5]];portConstraint=eastwest;whiteSpace=wrap;html=1;" parent="_4BLBaTchMxzVuJuGMlZ-44" vertex="1">
          <mxGeometry y="104" width="182" height="26" as="geometry" />
        </mxCell>
        <mxCell id="_4BLBaTchMxzVuJuGMlZ-49" value="+ FrequenzaSessioni: String [1]" style="text;strokeColor=none;fillColor=none;align=left;verticalAlign=top;spacingLeft=4;spacingRight=4;overflow=hidden;rotatable=0;points=[[0,0.5],[1,0.5]];portConstraint=eastwest;whiteSpace=wrap;html=1;" parent="_4BLBaTchMxzVuJuGMlZ-44" vertex="1">
          <mxGeometry y="130" width="182" height="26" as="geometry" />
        </mxCell>
        <mxCell id="_4BLBaTchMxzVuJuGMlZ-50" value="&amp;nbsp;+ Limite: Integer [0..1]" style="text;html=1;align=left;verticalAlign=middle;whiteSpace=wrap;rounded=0;" parent="_4BLBaTchMxzVuJuGMlZ-44" vertex="1">
          <mxGeometry y="156" width="182" height="30" as="geometry" />
        </mxCell>
        <mxCell id="_4BLBaTchMxzVuJuGMlZ-51" value="+ Descrizione: String [1]" style="text;strokeColor=none;fillColor=none;align=left;verticalAlign=top;spacingLeft=4;spacingRight=4;overflow=hidden;rotatable=0;points=[[0,0.5],[1,0.5]];portConstraint=eastwest;whiteSpace=wrap;html=1;" parent="_4BLBaTchMxzVuJuGMlZ-44" vertex="1">
          <mxGeometry y="186" width="182" height="26" as="geometry" />
        </mxCell>
        <mxCell id="_4BLBaTchMxzVuJuGMlZ-52" value="+ Costo: Double [1]" style="text;strokeColor=none;fillColor=none;align=left;verticalAlign=top;spacingLeft=4;spacingRight=4;overflow=hidden;rotatable=0;points=[[0,0.5],[1,0.5]];portConstraint=eastwest;whiteSpace=wrap;html=1;" parent="_4BLBaTchMxzVuJuGMlZ-44" vertex="1">
          <mxGeometry y="212" width="182" height="26" as="geometry" />
        </mxCell>
        <mxCell id="_4BLBaTchMxzVuJuGMlZ-53" value="+ isPratico: Boolean [1]" style="text;strokeColor=none;fillColor=none;align=left;verticalAlign=top;spacingLeft=4;spacingRight=4;overflow=hidden;rotatable=0;points=[[0,0.5],[1,0.5]];portConstraint=eastwest;whiteSpace=wrap;html=1;" parent="_4BLBaTchMxzVuJuGMlZ-44" vertex="1">
          <mxGeometry y="238" width="182" height="26" as="geometry" />
        </mxCell>
        <mxCell id="_4BLBaTchMxzVuJuGMlZ-54" value="&lt;div style=&quot;text-align: left;&quot;&gt;&lt;b&gt;Argomento&lt;/b&gt;&lt;/div&gt;" style="swimlane;fontStyle=0;childLayout=stackLayout;horizontal=1;startSize=26;horizontalStack=0;resizeParent=1;resizeParentMax=0;resizeLast=0;collapsible=1;marginBottom=0;whiteSpace=wrap;html=1;fillColor=#e1d5e7;strokeColor=#9673a6;" parent="1" vertex="1">
          <mxGeometry x="1476" y="157" width="163" height="78" as="geometry" />
        </mxCell>
        <mxCell id="_4BLBaTchMxzVuJuGMlZ-55" value="+ IdArgomento: Integer [1]" style="text;strokeColor=none;fillColor=none;align=left;verticalAlign=top;spacingLeft=4;spacingRight=4;overflow=hidden;rotatable=0;points=[[0,0.5],[1,0.5]];portConstraint=eastwest;whiteSpace=wrap;html=1;" parent="_4BLBaTchMxzVuJuGMlZ-54" vertex="1">
          <mxGeometry y="26" width="163" height="26" as="geometry" />
        </mxCell>
        <mxCell id="_4BLBaTchMxzVuJuGMlZ-56" value="+ Nome: String [1]" style="text;strokeColor=none;fillColor=none;align=left;verticalAlign=top;spacingLeft=4;spacingRight=4;overflow=hidden;rotatable=0;points=[[0,0.5],[1,0.5]];portConstraint=eastwest;whiteSpace=wrap;html=1;" parent="_4BLBaTchMxzVuJuGMlZ-54" vertex="1">
          <mxGeometry y="52" width="163" height="26" as="geometry" />
        </mxCell>
        <mxCell id="_4BLBaTchMxzVuJuGMlZ-57" value="&lt;b&gt;SessionePratica&lt;/b&gt;" style="swimlane;fontStyle=0;childLayout=stackLayout;horizontal=1;startSize=26;horizontalStack=0;resizeParent=1;resizeParentMax=0;resizeLast=0;collapsible=1;marginBottom=0;whiteSpace=wrap;html=1;fillColor=#fff2cc;strokeColor=#d6b656;" parent="1" vertex="1">
          <mxGeometry x="1149" y="827" width="184" height="182" as="geometry" />
        </mxCell>
        <mxCell id="_4BLBaTchMxzVuJuGMlZ-58" value="+ IdSessionePratica: Integer [1]" style="text;strokeColor=none;fillColor=none;align=left;verticalAlign=top;spacingLeft=4;spacingRight=4;overflow=hidden;rotatable=0;points=[[0,0.5],[1,0.5]];portConstraint=eastwest;whiteSpace=wrap;html=1;" parent="_4BLBaTchMxzVuJuGMlZ-57" vertex="1">
          <mxGeometry y="26" width="184" height="26" as="geometry" />
        </mxCell>
        <mxCell id="_4BLBaTchMxzVuJuGMlZ-59" value="+ Durata: Integer [1]" style="text;strokeColor=none;fillColor=none;align=left;verticalAlign=top;spacingLeft=4;spacingRight=4;overflow=hidden;rotatable=0;points=[[0,0.5],[1,0.5]];portConstraint=eastwest;whiteSpace=wrap;html=1;" parent="_4BLBaTchMxzVuJuGMlZ-57" vertex="1">
          <mxGeometry y="52" width="184" height="26" as="geometry" />
        </mxCell>
        <mxCell id="_4BLBaTchMxzVuJuGMlZ-60" value="+ Orario:&amp;nbsp;&lt;span class=&quot;router-outlet-wrapper ng-tns-c4274809755-0&quot;&gt;Time [1]&lt;/span&gt;" style="text;strokeColor=none;fillColor=none;align=left;verticalAlign=top;spacingLeft=4;spacingRight=4;overflow=hidden;rotatable=0;points=[[0,0.5],[1,0.5]];portConstraint=eastwest;whiteSpace=wrap;html=1;" parent="_4BLBaTchMxzVuJuGMlZ-57" vertex="1">
          <mxGeometry y="78" width="184" height="26" as="geometry" />
        </mxCell>
        <mxCell id="_4BLBaTchMxzVuJuGMlZ-61" value="+ Data: Data [1]" style="text;strokeColor=none;fillColor=none;align=left;verticalAlign=top;spacingLeft=4;spacingRight=4;overflow=hidden;rotatable=0;points=[[0,0.5],[1,0.5]];portConstraint=eastwest;whiteSpace=wrap;html=1;" parent="_4BLBaTchMxzVuJuGMlZ-57" vertex="1">
          <mxGeometry y="104" width="184" height="26" as="geometry" />
        </mxCell>
        <mxCell id="_4BLBaTchMxzVuJuGMlZ-62" value="+ NumeroUtenti: Integer [0..1]" style="text;strokeColor=none;fillColor=none;align=left;verticalAlign=top;spacingLeft=4;spacingRight=4;overflow=hidden;rotatable=0;points=[[0,0.5],[1,0.5]];portConstraint=eastwest;whiteSpace=wrap;html=1;" parent="_4BLBaTchMxzVuJuGMlZ-57" vertex="1">
          <mxGeometry y="130" width="184" height="26" as="geometry" />
        </mxCell>
        <mxCell id="_4BLBaTchMxzVuJuGMlZ-63" value="+ Luogo: String [0..1]" style="text;strokeColor=none;fillColor=none;align=left;verticalAlign=top;spacingLeft=4;spacingRight=4;overflow=hidden;rotatable=0;points=[[0,0.5],[1,0.5]];portConstraint=eastwest;whiteSpace=wrap;html=1;" parent="_4BLBaTchMxzVuJuGMlZ-57" vertex="1">
          <mxGeometry y="156" width="184" height="26" as="geometry" />
        </mxCell>
        <mxCell id="_4BLBaTchMxzVuJuGMlZ-64" value="Ingrediente" style="swimlane;fontStyle=1;align=center;verticalAlign=top;childLayout=stackLayout;horizontal=1;startSize=26;horizontalStack=0;resizeParent=1;resizeParentMax=0;resizeLast=0;collapsible=1;marginBottom=0;whiteSpace=wrap;html=1;fillColor=#dae8fc;strokeColor=#6c8ebf;" parent="1" vertex="1">
          <mxGeometry x="1153.5" y="1058" width="168" height="104" as="geometry" />
        </mxCell>
        <mxCell id="_4BLBaTchMxzVuJuGMlZ-65" value="+ IdIngrediente: Integer [1]" style="text;strokeColor=none;fillColor=none;align=left;verticalAlign=top;spacingLeft=4;spacingRight=4;overflow=hidden;rotatable=0;points=[[0,0.5],[1,0.5]];portConstraint=eastwest;whiteSpace=wrap;html=1;" parent="_4BLBaTchMxzVuJuGMlZ-64" vertex="1">
          <mxGeometry y="26" width="168" height="26" as="geometry" />
        </mxCell>
        <mxCell id="_4BLBaTchMxzVuJuGMlZ-66" value="+ Nome: String [1]" style="text;strokeColor=none;fillColor=none;align=left;verticalAlign=top;spacingLeft=4;spacingRight=4;overflow=hidden;rotatable=0;points=[[0,0.5],[1,0.5]];portConstraint=eastwest;whiteSpace=wrap;html=1;" parent="_4BLBaTchMxzVuJuGMlZ-64" vertex="1">
          <mxGeometry y="52" width="168" height="26" as="geometry" />
        </mxCell>
        <mxCell id="_4BLBaTchMxzVuJuGMlZ-67" value="+ Origine: NaturaIngrediente" style="text;strokeColor=none;fillColor=none;align=left;verticalAlign=top;spacingLeft=4;spacingRight=4;overflow=hidden;rotatable=0;points=[[0,0.5],[1,0.5]];portConstraint=eastwest;whiteSpace=wrap;html=1;" parent="_4BLBaTchMxzVuJuGMlZ-64" vertex="1">
          <mxGeometry y="78" width="168" height="26" as="geometry" />
        </mxCell>
        <mxCell id="_4BLBaTchMxzVuJuGMlZ-71" value="&lt;b&gt;Ricetta&lt;/b&gt;" style="swimlane;fontStyle=0;childLayout=stackLayout;horizontal=1;startSize=26;horizontalStack=0;resizeParent=1;resizeParentMax=0;resizeLast=0;collapsible=1;marginBottom=0;whiteSpace=wrap;html=1;fillColor=#dae8fc;strokeColor=#6c8ebf;" parent="1" vertex="1">
          <mxGeometry x="846" y="664" width="154" height="208" as="geometry" />
        </mxCell>
        <mxCell id="_4BLBaTchMxzVuJuGMlZ-72" value="+ IdRicetta: Integer [1]" style="text;strokeColor=none;fillColor=none;align=left;verticalAlign=top;spacingLeft=4;spacingRight=4;overflow=hidden;rotatable=0;points=[[0,0.5],[1,0.5]];portConstraint=eastwest;whiteSpace=wrap;html=1;" parent="_4BLBaTchMxzVuJuGMlZ-71" vertex="1">
          <mxGeometry y="26" width="154" height="26" as="geometry" />
        </mxCell>
        <mxCell id="_4BLBaTchMxzVuJuGMlZ-73" value="+ Nome: String [1]" style="text;strokeColor=none;fillColor=none;align=left;verticalAlign=top;spacingLeft=4;spacingRight=4;overflow=hidden;rotatable=0;points=[[0,0.5],[1,0.5]];portConstraint=eastwest;whiteSpace=wrap;html=1;" parent="_4BLBaTchMxzVuJuGMlZ-71" vertex="1">
          <mxGeometry y="52" width="154" height="26" as="geometry" />
        </mxCell>
        <mxCell id="_4BLBaTchMxzVuJuGMlZ-74" value="+ Provenienza: String [1]" style="text;strokeColor=none;fillColor=none;align=left;verticalAlign=top;spacingLeft=4;spacingRight=4;overflow=hidden;rotatable=0;points=[[0,0.5],[1,0.5]];portConstraint=eastwest;whiteSpace=wrap;html=1;" parent="_4BLBaTchMxzVuJuGMlZ-71" vertex="1">
          <mxGeometry y="78" width="154" height="26" as="geometry" />
        </mxCell>
        <mxCell id="_4BLBaTchMxzVuJuGMlZ-75" value="+ Tempo: Time [1]" style="text;strokeColor=none;fillColor=none;align=left;verticalAlign=top;spacingLeft=4;spacingRight=4;overflow=hidden;rotatable=0;points=[[0,0.5],[1,0.5]];portConstraint=eastwest;whiteSpace=wrap;html=1;" parent="_4BLBaTchMxzVuJuGMlZ-71" vertex="1">
          <mxGeometry y="104" width="154" height="26" as="geometry" />
        </mxCell>
        <mxCell id="_4BLBaTchMxzVuJuGMlZ-76" value="+ Calorie: Integer [1]" style="text;strokeColor=none;fillColor=none;align=left;verticalAlign=top;spacingLeft=4;spacingRight=4;overflow=hidden;rotatable=0;points=[[0,0.5],[1,0.5]];portConstraint=eastwest;whiteSpace=wrap;html=1;" parent="_4BLBaTchMxzVuJuGMlZ-71" vertex="1">
          <mxGeometry y="130" width="154" height="26" as="geometry" />
        </mxCell>
        <mxCell id="_4BLBaTchMxzVuJuGMlZ-77" value="+ DifficoltÃ : LivelloDifficoltÃ " style="text;strokeColor=none;fillColor=none;align=left;verticalAlign=top;spacingLeft=4;spacingRight=4;overflow=hidden;rotatable=0;points=[[0,0.5],[1,0.5]];portConstraint=eastwest;whiteSpace=wrap;html=1;" parent="_4BLBaTchMxzVuJuGMlZ-71" vertex="1">
          <mxGeometry y="156" width="154" height="26" as="geometry" />
        </mxCell>
        <mxCell id="_4BLBaTchMxzVuJuGMlZ-78" value="+ Allergeni: String [0..1]" style="text;strokeColor=none;fillColor=none;align=left;verticalAlign=top;spacingLeft=4;spacingRight=4;overflow=hidden;rotatable=0;points=[[0,0.5],[1,0.5]];portConstraint=eastwest;whiteSpace=wrap;html=1;" parent="_4BLBaTchMxzVuJuGMlZ-71" vertex="1">
          <mxGeometry y="182" width="154" height="26" as="geometry" />
        </mxCell>
        <mxCell id="_4BLBaTchMxzVuJuGMlZ-86" value="Utilizzo" style="swimlane;fontStyle=0;childLayout=stackLayout;horizontal=1;startSize=26;fillColor=#ffe6cc;horizontalStack=0;resizeParent=1;resizeParentMax=0;resizeLast=0;collapsible=1;marginBottom=0;whiteSpace=wrap;html=1;strokeColor=#d79b00;" parent="1" vertex="1">
          <mxGeometry x="964" y="1023" width="140" height="78" as="geometry" />
        </mxCell>
        <mxCell id="_4BLBaTchMxzVuJuGMlZ-87" value="+ QuantitÃ : Integer [1]" style="text;strokeColor=none;fillColor=none;align=left;verticalAlign=top;spacingLeft=4;spacingRight=4;overflow=hidden;rotatable=0;points=[[0,0.5],[1,0.5]];portConstraint=eastwest;whiteSpace=wrap;html=1;" parent="_4BLBaTchMxzVuJuGMlZ-86" vertex="1">
          <mxGeometry y="26" width="140" height="26" as="geometry" />
        </mxCell>
        <mxCell id="_4BLBaTchMxzVuJuGMlZ-88" value="+ UDM: UnitaDiMisura" style="text;strokeColor=none;fillColor=none;align=left;verticalAlign=top;spacingLeft=4;spacingRight=4;overflow=hidden;rotatable=0;points=[[0,0.5],[1,0.5]];portConstraint=eastwest;whiteSpace=wrap;html=1;" parent="_4BLBaTchMxzVuJuGMlZ-86" vertex="1">
          <mxGeometry y="52" width="140" height="26" as="geometry" />
        </mxCell>
        <mxCell id="_4BLBaTchMxzVuJuGMlZ-94" value="Partecipante" style="swimlane;fontStyle=1;align=center;verticalAlign=top;childLayout=stackLayout;horizontal=1;startSize=26;horizontalStack=0;resizeParent=1;resizeParentMax=0;resizeLast=0;collapsible=1;marginBottom=0;whiteSpace=wrap;html=1;fillColor=#f8cecc;strokeColor=#b85450;" parent="1" vertex="1">
          <mxGeometry x="1042" y="288" width="163" height="286" as="geometry" />
        </mxCell>
        <mxCell id="_4BLBaTchMxzVuJuGMlZ-95" value="+ IdPartecipante: Integer [1]" style="text;strokeColor=none;fillColor=none;align=left;verticalAlign=top;spacingLeft=4;spacingRight=4;overflow=hidden;rotatable=0;points=[[0,0.5],[1,0.5]];portConstraint=eastwest;whiteSpace=wrap;html=1;" parent="_4BLBaTchMxzVuJuGMlZ-94" vertex="1">
          <mxGeometry y="26" width="163" height="26" as="geometry" />
        </mxCell>
        <mxCell id="_4BLBaTchMxzVuJuGMlZ-96" value="+ Username: String [1]" style="text;strokeColor=none;fillColor=none;align=left;verticalAlign=top;spacingLeft=4;spacingRight=4;overflow=hidden;rotatable=0;points=[[0,0.5],[1,0.5]];portConstraint=eastwest;whiteSpace=wrap;html=1;" parent="_4BLBaTchMxzVuJuGMlZ-94" vertex="1">
          <mxGeometry y="52" width="163" height="26" as="geometry" />
        </mxCell>
        <mxCell id="_4BLBaTchMxzVuJuGMlZ-97" value="+ Nome: String [1]" style="text;strokeColor=none;fillColor=none;align=left;verticalAlign=top;spacingLeft=4;spacingRight=4;overflow=hidden;rotatable=0;points=[[0,0.5],[1,0.5]];portConstraint=eastwest;whiteSpace=wrap;html=1;" parent="_4BLBaTchMxzVuJuGMlZ-94" vertex="1">
          <mxGeometry y="78" width="163" height="26" as="geometry" />
        </mxCell>
        <mxCell id="_4BLBaTchMxzVuJuGMlZ-98" value="+ Cognome: String [1]" style="text;strokeColor=none;fillColor=none;align=left;verticalAlign=top;spacingLeft=4;spacingRight=4;overflow=hidden;rotatable=0;points=[[0,0.5],[1,0.5]];portConstraint=eastwest;whiteSpace=wrap;html=1;" parent="_4BLBaTchMxzVuJuGMlZ-94" vertex="1">
          <mxGeometry y="104" width="163" height="26" as="geometry" />
        </mxCell>
        <mxCell id="_4BLBaTchMxzVuJuGMlZ-99" value="+ CodiceFiscale: String [1]" style="text;strokeColor=none;fillColor=none;align=left;verticalAlign=top;spacingLeft=4;spacingRight=4;overflow=hidden;rotatable=0;points=[[0,0.5],[1,0.5]];portConstraint=eastwest;whiteSpace=wrap;html=1;" parent="_4BLBaTchMxzVuJuGMlZ-94" vertex="1">
          <mxGeometry y="130" width="163" height="26" as="geometry" />
        </mxCell>
        <mxCell id="_4BLBaTchMxzVuJuGMlZ-100" value="+ DataDiNascita: Data [1]" style="text;strokeColor=none;fillColor=none;align=left;verticalAlign=top;spacingLeft=4;spacingRight=4;overflow=hidden;rotatable=0;points=[[0,0.5],[1,0.5]];portConstraint=eastwest;whiteSpace=wrap;html=1;" parent="_4BLBaTchMxzVuJuGMlZ-94" vertex="1">
          <mxGeometry y="156" width="163" height="26" as="geometry" />
        </mxCell>
        <mxCell id="_4BLBaTchMxzVuJuGMlZ-101" value="+ LuogoDiNascita: String [1]" style="text;strokeColor=none;fillColor=none;align=left;verticalAlign=top;spacingLeft=4;spacingRight=4;overflow=hidden;rotatable=0;points=[[0,0.5],[1,0.5]];portConstraint=eastwest;whiteSpace=wrap;html=1;" parent="_4BLBaTchMxzVuJuGMlZ-94" vertex="1">
          <mxGeometry y="182" width="163" height="26" as="geometry" />
        </mxCell>
        <mxCell id="_4BLBaTchMxzVuJuGMlZ-102" value="+ Email: String [1]" style="text;strokeColor=none;fillColor=none;align=left;verticalAlign=top;spacingLeft=4;spacingRight=4;overflow=hidden;rotatable=0;points=[[0,0.5],[1,0.5]];portConstraint=eastwest;whiteSpace=wrap;html=1;" parent="_4BLBaTchMxzVuJuGMlZ-94" vertex="1">
          <mxGeometry y="208" width="163" height="26" as="geometry" />
        </mxCell>
        <mxCell id="_4BLBaTchMxzVuJuGMlZ-103" value="+ Password: String [1]" style="text;strokeColor=none;fillColor=none;align=left;verticalAlign=top;spacingLeft=4;spacingRight=4;overflow=hidden;rotatable=0;points=[[0,0.5],[1,0.5]];portConstraint=eastwest;whiteSpace=wrap;html=1;" parent="_4BLBaTchMxzVuJuGMlZ-94" vertex="1">
          <mxGeometry y="234" width="163" height="26" as="geometry" />
        </mxCell>
        <mxCell id="_4BLBaTchMxzVuJuGMlZ-104" value="+ NumeroCorsi: Integer [1]" style="text;strokeColor=none;fillColor=none;align=left;verticalAlign=top;spacingLeft=4;spacingRight=4;overflow=hidden;rotatable=0;points=[[0,0.5],[1,0.5]];portConstraint=eastwest;whiteSpace=wrap;html=1;" parent="_4BLBaTchMxzVuJuGMlZ-94" vertex="1">
          <mxGeometry y="260" width="163" height="26" as="geometry" />
        </mxCell>
        <mxCell id="_4BLBaTchMxzVuJuGMlZ-105" value="Chef" style="swimlane;fontStyle=1;align=center;verticalAlign=top;childLayout=stackLayout;horizontal=1;startSize=26;horizontalStack=0;resizeParent=1;resizeParentMax=0;resizeLast=0;collapsible=1;marginBottom=0;whiteSpace=wrap;html=1;fillColor=#f8cecc;strokeColor=#b85450;" parent="1" vertex="1">
          <mxGeometry x="846" y="288" width="160" height="290" as="geometry" />
        </mxCell>
        <mxCell id="_4BLBaTchMxzVuJuGMlZ-106" value="+ IdChef: Integer [1]" style="text;strokeColor=none;fillColor=none;align=left;verticalAlign=top;spacingLeft=4;spacingRight=4;overflow=hidden;rotatable=0;points=[[0,0.5],[1,0.5]];portConstraint=eastwest;whiteSpace=wrap;html=1;" parent="_4BLBaTchMxzVuJuGMlZ-105" vertex="1">
          <mxGeometry y="26" width="160" height="26" as="geometry" />
        </mxCell>
        <mxCell id="_4BLBaTchMxzVuJuGMlZ-107" value="+ Username: String [1]" style="text;strokeColor=none;fillColor=none;align=left;verticalAlign=top;spacingLeft=4;spacingRight=4;overflow=hidden;rotatable=0;points=[[0,0.5],[1,0.5]];portConstraint=eastwest;whiteSpace=wrap;html=1;" parent="_4BLBaTchMxzVuJuGMlZ-105" vertex="1">
          <mxGeometry y="52" width="160" height="26" as="geometry" />
        </mxCell>
        <mxCell id="_4BLBaTchMxzVuJuGMlZ-108" value="+ Nome: String [1]" style="text;strokeColor=none;fillColor=none;align=left;verticalAlign=top;spacingLeft=4;spacingRight=4;overflow=hidden;rotatable=0;points=[[0,0.5],[1,0.5]];portConstraint=eastwest;whiteSpace=wrap;html=1;" parent="_4BLBaTchMxzVuJuGMlZ-105" vertex="1">
          <mxGeometry y="78" width="160" height="26" as="geometry" />
        </mxCell>
        <mxCell id="_4BLBaTchMxzVuJuGMlZ-109" value="+ Cognome: String [1]" style="text;strokeColor=none;fillColor=none;align=left;verticalAlign=top;spacingLeft=4;spacingRight=4;overflow=hidden;rotatable=0;points=[[0,0.5],[1,0.5]];portConstraint=eastwest;whiteSpace=wrap;html=1;" parent="_4BLBaTchMxzVuJuGMlZ-105" vertex="1">
          <mxGeometry y="104" width="160" height="26" as="geometry" />
        </mxCell>
        <mxCell id="_4BLBaTchMxzVuJuGMlZ-110" value="+ CodiceFiscale: String [1]" style="text;strokeColor=none;fillColor=none;align=left;verticalAlign=top;spacingLeft=4;spacingRight=4;overflow=hidden;rotatable=0;points=[[0,0.5],[1,0.5]];portConstraint=eastwest;whiteSpace=wrap;html=1;" parent="_4BLBaTchMxzVuJuGMlZ-105" vertex="1">
          <mxGeometry y="130" width="160" height="26" as="geometry" />
        </mxCell>
        <mxCell id="_4BLBaTchMxzVuJuGMlZ-111" value="+ DataDiNascita: Data [1]" style="text;strokeColor=none;fillColor=none;align=left;verticalAlign=top;spacingLeft=4;spacingRight=4;overflow=hidden;rotatable=0;points=[[0,0.5],[1,0.5]];portConstraint=eastwest;whiteSpace=wrap;html=1;" parent="_4BLBaTchMxzVuJuGMlZ-105" vertex="1">
          <mxGeometry y="156" width="160" height="26" as="geometry" />
        </mxCell>
        <mxCell id="_4BLBaTchMxzVuJuGMlZ-112" value="+ LuogoDiNascita: String [1]" style="text;strokeColor=none;fillColor=none;align=left;verticalAlign=top;spacingLeft=4;spacingRight=4;overflow=hidden;rotatable=0;points=[[0,0.5],[1,0.5]];portConstraint=eastwest;whiteSpace=wrap;html=1;" parent="_4BLBaTchMxzVuJuGMlZ-105" vertex="1">
          <mxGeometry y="182" width="160" height="26" as="geometry" />
        </mxCell>
        <mxCell id="_4BLBaTchMxzVuJuGMlZ-113" value="+ Email: String [1]" style="text;strokeColor=none;fillColor=none;align=left;verticalAlign=top;spacingLeft=4;spacingRight=4;overflow=hidden;rotatable=0;points=[[0,0.5],[1,0.5]];portConstraint=eastwest;whiteSpace=wrap;html=1;" parent="_4BLBaTchMxzVuJuGMlZ-105" vertex="1">
          <mxGeometry y="208" width="160" height="26" as="geometry" />
        </mxCell>
        <mxCell id="_4BLBaTchMxzVuJuGMlZ-114" value="+ Password: String [1]" style="text;strokeColor=none;fillColor=none;align=left;verticalAlign=top;spacingLeft=4;spacingRight=4;overflow=hidden;rotatable=0;points=[[0,0.5],[1,0.5]];portConstraint=eastwest;whiteSpace=wrap;html=1;" parent="_4BLBaTchMxzVuJuGMlZ-105" vertex="1">
          <mxGeometry y="234" width="160" height="26" as="geometry" />
        </mxCell>
        <mxCell id="_4BLBaTchMxzVuJuGMlZ-115" value="+ Curriculum: String [1]" style="text;strokeColor=none;fillColor=none;align=left;verticalAlign=top;spacingLeft=4;spacingRight=4;overflow=hidden;rotatable=0;points=[[0,0.5],[1,0.5]];portConstraint=eastwest;whiteSpace=wrap;html=1;" parent="_4BLBaTchMxzVuJuGMlZ-105" vertex="1">
          <mxGeometry y="260" width="160" height="30" as="geometry" />
        </mxCell>
        <mxCell id="_4BLBaTchMxzVuJuGMlZ-118" value="Adesione" style="swimlane;fontStyle=0;childLayout=stackLayout;horizontal=1;startSize=26;fillColor=#ffe6cc;horizontalStack=0;resizeParent=1;resizeParentMax=0;resizeLast=0;collapsible=1;marginBottom=0;whiteSpace=wrap;html=1;strokeColor=#d79b00;" parent="1" vertex="1">
          <mxGeometry x="1159" y="696" width="159" height="52" as="geometry" />
        </mxCell>
        <mxCell id="_4BLBaTchMxzVuJuGMlZ-119" value="+ DataAdesione: Data [1]" style="text;strokeColor=none;fillColor=none;align=left;verticalAlign=top;spacingLeft=4;spacingRight=4;overflow=hidden;rotatable=0;points=[[0,0.5],[1,0.5]];portConstraint=eastwest;whiteSpace=wrap;html=1;" parent="_4BLBaTchMxzVuJuGMlZ-118" vertex="1">
          <mxGeometry y="26" width="159" height="26" as="geometry" />
        </mxCell>
        <mxCell id="_4BLBaTchMxzVuJuGMlZ-140" value="&lt;b&gt;SessioneOnline&lt;/b&gt;" style="swimlane;fontStyle=0;childLayout=stackLayout;horizontal=1;startSize=26;horizontalStack=0;resizeParent=1;resizeParentMax=0;resizeLast=0;collapsible=1;marginBottom=0;whiteSpace=wrap;html=1;fillColor=#fff2cc;strokeColor=#d6b656;" parent="1" vertex="1">
          <mxGeometry x="1456" y="699" width="187" height="156" as="geometry" />
        </mxCell>
        <mxCell id="_4BLBaTchMxzVuJuGMlZ-141" value="+ IdSessioneOnline: Integer [1]" style="text;strokeColor=none;fillColor=none;align=left;verticalAlign=top;spacingLeft=4;spacingRight=4;overflow=hidden;rotatable=0;points=[[0,0.5],[1,0.5]];portConstraint=eastwest;whiteSpace=wrap;html=1;" parent="_4BLBaTchMxzVuJuGMlZ-140" vertex="1">
          <mxGeometry y="26" width="187" height="26" as="geometry" />
        </mxCell>
        <mxCell id="_4BLBaTchMxzVuJuGMlZ-142" value="+ Durata: Integer [1]" style="text;strokeColor=none;fillColor=none;align=left;verticalAlign=top;spacingLeft=4;spacingRight=4;overflow=hidden;rotatable=0;points=[[0,0.5],[1,0.5]];portConstraint=eastwest;whiteSpace=wrap;html=1;" parent="_4BLBaTchMxzVuJuGMlZ-140" vertex="1">
          <mxGeometry y="52" width="187" height="26" as="geometry" />
        </mxCell>
        <mxCell id="_4BLBaTchMxzVuJuGMlZ-143" value="+ Orario:&amp;nbsp;&lt;span class=&quot;router-outlet-wrapper ng-tns-c4274809755-0&quot;&gt;Time [1]&lt;/span&gt;" style="text;strokeColor=none;fillColor=none;align=left;verticalAlign=top;spacingLeft=4;spacingRight=4;overflow=hidden;rotatable=0;points=[[0,0.5],[1,0.5]];portConstraint=eastwest;whiteSpace=wrap;html=1;" parent="_4BLBaTchMxzVuJuGMlZ-140" vertex="1">
          <mxGeometry y="78" width="187" height="26" as="geometry" />
        </mxCell>
        <mxCell id="_4BLBaTchMxzVuJuGMlZ-144" value="+ Data: Data [1]" style="text;strokeColor=none;fillColor=none;align=left;verticalAlign=top;spacingLeft=4;spacingRight=4;overflow=hidden;rotatable=0;points=[[0,0.5],[1,0.5]];portConstraint=eastwest;whiteSpace=wrap;html=1;" parent="_4BLBaTchMxzVuJuGMlZ-140" vertex="1">
          <mxGeometry y="104" width="187" height="26" as="geometry" />
        </mxCell>
        <mxCell id="_4BLBaTchMxzVuJuGMlZ-145" value="+ LinkRiunione: String [0..1]" style="text;strokeColor=none;fillColor=none;align=left;verticalAlign=top;spacingLeft=4;spacingRight=4;overflow=hidden;rotatable=0;points=[[0,0.5],[1,0.5]];portConstraint=eastwest;whiteSpace=wrap;html=1;" parent="_4BLBaTchMxzVuJuGMlZ-140" vertex="1">
          <mxGeometry y="130" width="187" height="26" as="geometry" />
        </mxCell>
        <mxCell id="_4BLBaTchMxzVuJuGMlZ-162" value="" style="endArrow=none;html=1;rounded=0;entryX=0.498;entryY=0.967;entryDx=0;entryDy=0;entryPerimeter=0;" parent="1" target="_4BLBaTchMxzVuJuGMlZ-78" edge="1">
          <mxGeometry width="50" height="50" relative="1" as="geometry">
            <mxPoint x="1153.5" y="1130" as="sourcePoint" />
            <mxPoint x="923" y="895" as="targetPoint" />
            <Array as="points">
              <mxPoint x="923" y="1130" />
            </Array>
          </mxGeometry>
        </mxCell>
        <mxCell id="_4BLBaTchMxzVuJuGMlZ-165" value="" style="endArrow=none;html=1;rounded=0;entryX=0.48;entryY=0.988;entryDx=0;entryDy=0;entryPerimeter=0;" parent="1" source="_4BLBaTchMxzVuJuGMlZ-71" target="_4BLBaTchMxzVuJuGMlZ-115" edge="1">
          <mxGeometry width="50" height="50" relative="1" as="geometry">
            <mxPoint x="1133" y="639" as="sourcePoint" />
            <mxPoint x="1012" y="510" as="targetPoint" />
          </mxGeometry>
        </mxCell>
        <mxCell id="_4BLBaTchMxzVuJuGMlZ-182" value="" style="endArrow=none;html=1;rounded=0;entryX=-0.002;entryY=0.378;entryDx=0;entryDy=0;entryPerimeter=0;" parent="1" edge="1">
          <mxGeometry width="50" height="50" relative="1" as="geometry">
            <mxPoint x="969" y="873" as="sourcePoint" />
            <mxPoint x="1148.6319999999998" y="978.828" as="targetPoint" />
            <Array as="points">
              <mxPoint x="969" y="978" />
            </Array>
          </mxGeometry>
        </mxCell>
        <mxCell id="_4BLBaTchMxzVuJuGMlZ-184" value="" style="endArrow=none;html=1;rounded=0;exitX=-0.001;exitY=0.392;exitDx=0;exitDy=0;exitPerimeter=0;" parent="1" source="_4BLBaTchMxzVuJuGMlZ-59" target="_4BLBaTchMxzVuJuGMlZ-94" edge="1">
          <mxGeometry width="50" height="50" relative="1" as="geometry">
            <mxPoint x="1209" y="821" as="sourcePoint" />
            <mxPoint x="1259" y="771" as="targetPoint" />
            <Array as="points">
              <mxPoint x="1124" y="889" />
            </Array>
          </mxGeometry>
        </mxCell>
        <mxCell id="_4BLBaTchMxzVuJuGMlZ-185" value="" style="endArrow=none;dashed=1;html=1;rounded=0;" parent="1" edge="1">
          <mxGeometry width="50" height="50" relative="1" as="geometry">
            <mxPoint x="1125" y="729" as="sourcePoint" />
            <mxPoint x="1159" y="729" as="targetPoint" />
          </mxGeometry>
        </mxCell>
        <mxCell id="_4BLBaTchMxzVuJuGMlZ-186" value="" style="endArrow=diamondThin;endFill=1;endSize=24;html=1;rounded=0;entryX=0.514;entryY=0.966;entryDx=0;entryDy=0;entryPerimeter=0;" parent="1" source="_4BLBaTchMxzVuJuGMlZ-140" target="_4BLBaTchMxzVuJuGMlZ-53" edge="1">
          <mxGeometry width="160" relative="1" as="geometry">
            <mxPoint x="1340" y="482" as="sourcePoint" />
            <mxPoint x="1303" y="482" as="targetPoint" />
          </mxGeometry>
        </mxCell>
        <mxCell id="_4BLBaTchMxzVuJuGMlZ-187" value="" style="endArrow=diamondThin;endFill=1;endSize=24;html=1;rounded=0;" parent="1" edge="1">
          <mxGeometry width="160" relative="1" as="geometry">
            <mxPoint x="1334" y="946" as="sourcePoint" />
            <mxPoint x="1455" y="524" as="targetPoint" />
            <Array as="points">
              <mxPoint x="1386" y="946" />
              <mxPoint x="1385" y="524" />
            </Array>
          </mxGeometry>
        </mxCell>
        <mxCell id="_4BLBaTchMxzVuJuGMlZ-188" value="" style="endArrow=none;html=1;rounded=0;" parent="1" edge="1">
          <mxGeometry width="50" height="50" relative="1" as="geometry">
            <mxPoint x="1455" y="484" as="sourcePoint" />
            <mxPoint x="1205" y="484" as="targetPoint" />
          </mxGeometry>
        </mxCell>
        <mxCell id="_4BLBaTchMxzVuJuGMlZ-189" value="" style="endArrow=none;html=1;rounded=0;" parent="1" target="_4BLBaTchMxzVuJuGMlZ-54" edge="1">
          <mxGeometry width="50" height="50" relative="1" as="geometry">
            <mxPoint x="1558.3310810810813" y="360" as="sourcePoint" />
            <mxPoint x="1266" y="477" as="targetPoint" />
          </mxGeometry>
        </mxCell>
        <mxCell id="_4BLBaTchMxzVuJuGMlZ-190" value="" style="endArrow=none;html=1;rounded=0;exitX=-0.002;exitY=0.154;exitDx=0;exitDy=0;exitPerimeter=0;" parent="1" edge="1">
          <mxGeometry width="50" height="50" relative="1" as="geometry">
            <mxPoint x="1454.636" y="427.0039999999999" as="sourcePoint" />
            <mxPoint x="926" y="287" as="targetPoint" />
            <Array as="points">
              <mxPoint x="1346" y="427" />
              <mxPoint x="1346" y="281" />
              <mxPoint x="926" y="281" />
            </Array>
          </mxGeometry>
        </mxCell>
        <mxCell id="_4BLBaTchMxzVuJuGMlZ-191" value="" style="endArrow=none;dashed=1;html=1;rounded=0;" parent="1" edge="1">
          <mxGeometry width="50" height="50" relative="1" as="geometry">
            <mxPoint x="1031.66" y="1129" as="sourcePoint" />
            <mxPoint x="1032" y="1101" as="targetPoint" />
          </mxGeometry>
        </mxCell>
        <mxCell id="_4BLBaTchMxzVuJuGMlZ-196" value="1" style="edgeLabel;resizable=0;html=1;align=right;verticalAlign=bottom;fontSize=12;" parent="1" connectable="0" vertex="1">
          <mxGeometry x="888" y="332.00482758620683" as="geometry">
            <mxPoint x="29" y="-49" as="offset" />
          </mxGeometry>
        </mxCell>
        <mxCell id="_4BLBaTchMxzVuJuGMlZ-197" value="Aggiunge" style="text;html=1;align=center;verticalAlign=middle;whiteSpace=wrap;rounded=0;" parent="1" vertex="1">
          <mxGeometry x="1194" y="253" width="60" height="30" as="geometry" />
        </mxCell>
        <mxCell id="_4BLBaTchMxzVuJuGMlZ-198" value="0..*" style="edgeLabel;resizable=0;html=1;align=left;verticalAlign=bottom;fontSize=12;" parent="1" connectable="0" vertex="1">
          <mxGeometry x="929.0000000000005" y="956.0000000000002" as="geometry">
            <mxPoint x="45" y="-62" as="offset" />
          </mxGeometry>
        </mxCell>
        <mxCell id="_4BLBaTchMxzVuJuGMlZ-199" value="1..*" style="edgeLabel;resizable=0;html=1;align=right;verticalAlign=bottom;fontSize=12;" parent="1" connectable="0" vertex="1">
          <mxGeometry x="1142.5012966879426" y="977.0015968880233" as="geometry" />
        </mxCell>
        <mxCell id="_4BLBaTchMxzVuJuGMlZ-200" value="0..*" style="text;html=1;align=center;verticalAlign=middle;resizable=0;points=[];autosize=1;strokeColor=none;fillColor=none;" parent="1" vertex="1">
          <mxGeometry x="919" y="643" width="36" height="26" as="geometry" />
        </mxCell>
        <mxCell id="_4BLBaTchMxzVuJuGMlZ-201" value="1" style="edgeLabel;resizable=0;html=1;align=right;verticalAlign=bottom;fontSize=12;" parent="1" connectable="0" vertex="1">
          <mxGeometry x="906" y="645.0048275862068" as="geometry">
            <mxPoint x="29" y="-49" as="offset" />
          </mxGeometry>
        </mxCell>
        <mxCell id="_4BLBaTchMxzVuJuGMlZ-202" value="Crea" style="text;html=1;align=center;verticalAlign=middle;whiteSpace=wrap;rounded=0;" parent="1" vertex="1">
          <mxGeometry x="915" y="604.5" width="60" height="30" as="geometry" />
        </mxCell>
      </root>
    </mxGraphModel>
  </diagram>
</mxfile>
